<svg width="40" height="38" viewBox="0 0 40 38" fill="none" xmlns="http://www.w3.org/2000/svg">
<path d="M35.7143 0.160156H4.28571C1.91964 0.160156 0 1.96692 0 4.19385V33.7743C0 36.0012 1.91964 37.808 4.28571 37.808H35.7143C38.0804 37.808 40 36.0012 40 33.7743V4.19385C40 1.96692 38.0804 0.160156 35.7143 0.160156ZM11.3393 29.7826C10.8482 30.5894 9.75 30.8583 8.90179 30.3961C8.04464 29.9339 7.75893 28.9002 8.25 28.1019L9.52679 26.0262C10.9643 25.6145 12.1429 25.9338 13.0625 26.9842L11.3393 29.7826ZM23.7411 25.2531H7.5C6.51786 25.2531 5.71429 24.4968 5.71429 23.5724C5.71429 22.648 6.51786 21.8917 7.5 21.8917H12.0536L17.8929 12.3789L16.0625 9.40404C15.5714 8.5973 15.8661 7.57207 16.7143 7.10988C17.5714 6.64768 18.6607 6.925 19.1518 7.72334L19.9464 9.01748L20.7411 7.72334C21.2321 6.9166 22.3304 6.64768 23.1786 7.10988C24.0357 7.57207 24.3214 8.60571 23.8304 9.40404L16.1696 21.8917H21.7143C23.5179 21.8917 24.5268 23.8833 23.7411 25.2531ZM32.5 25.2531H29.9107L31.6607 28.1019C32.1518 28.9086 31.8571 29.9339 31.0089 30.3961C30.1518 30.8583 29.0625 30.581 28.5714 29.7826C25.6339 25.001 23.4375 21.4043 21.9643 19.0177C20.4732 16.5807 21.5357 14.1436 22.5982 13.3201C23.7679 15.2277 25.5179 18.0849 27.8571 21.8917H32.5C33.4821 21.8917 34.2857 22.648 34.2857 23.5724C34.2857 24.5052 33.4821 25.2531 32.5 25.2531Z" fill="white"/>
</svg>
