<svg width="25" height="28" viewBox="0 0 25 28" fill="none" xmlns="http://www.w3.org/2000/svg">
<path d="M0.78125 6.36019H21.0938C21.5254 6.36019 21.875 5.92907 21.875 5.3968V1.54325C21.875 1.01098 21.5254 0.579865 21.0938 0.579865H0.78125C0.349609 0.579865 0 1.01098 0 1.54325V5.3968C0 5.92907 0.349609 6.36019 0.78125 6.36019ZM24.2188 11.1771H3.90625C3.47461 11.1771 3.125 11.6082 3.125 12.1405V15.9941C3.125 16.5263 3.47461 16.9574 3.90625 16.9574H24.2188C24.6504 16.9574 25 16.5263 25 15.9941V12.1405C25 11.6082 24.6504 11.1771 24.2188 11.1771ZM21.0938 21.7744H0.78125C0.349609 21.7744 0 22.2055 0 22.7378V26.5913C0 27.1236 0.349609 27.5547 0.78125 27.5547H21.0938C21.5254 27.5547 21.875 27.1236 21.875 26.5913V22.7378C21.875 22.2055 21.5254 21.7744 21.0938 21.7744Z" fill="white"/>
</svg>
