<svg width="40" height="38" viewBox="0 0 40 38" fill="none" xmlns="http://www.w3.org/2000/svg">
<path d="M20 14.5016C19.0581 14.502 18.1375 14.7651 17.3546 15.2579C16.5716 15.7506 15.9615 16.4508 15.6013 17.2699C15.2411 18.089 15.147 18.9902 15.331 19.8596C15.515 20.729 15.9687 21.5275 16.6348 22.1542C17.3009 22.7809 18.1495 23.2077 19.0733 23.3805C19.9971 23.5533 20.9546 23.4645 21.8247 23.1252C22.6949 22.7858 23.4386 22.2113 23.9618 21.4742C24.485 20.7371 24.7643 19.8705 24.7643 18.9841C24.7633 17.7952 24.261 16.6554 23.3677 15.8149C22.4744 14.9744 21.2631 14.5021 20 14.5016ZM31.1348 11.0562C30.8924 10.4779 30.5263 9.95264 30.0592 9.51304C29.5921 9.07344 29.0341 8.72886 28.4196 8.50066C26.5446 7.80401 22.0804 7.96032 20 7.96032C17.9196 7.96032 13.4598 7.79813 11.5795 8.50066C10.965 8.72886 10.407 9.07344 9.93992 9.51304C9.47285 9.95264 9.10674 10.4779 8.86429 11.0562C8.125 12.8209 8.29018 17.0269 8.29018 18.9832C8.29018 20.9396 8.125 25.1405 8.86786 26.9111C9.11031 27.4894 9.47642 28.0147 9.94349 28.4543C10.4106 28.8939 10.9686 29.2384 11.583 29.4666C13.458 30.1633 17.9223 30.007 20.0036 30.007C22.0848 30.007 26.5429 30.1692 28.4232 29.4666C29.0376 29.2384 29.5957 28.8939 30.0628 28.4543C30.5298 28.0147 30.8959 27.4894 31.1384 26.9111C31.8839 25.1464 31.7125 20.9404 31.7125 18.9841C31.7125 17.0277 31.8839 12.8276 31.1384 11.057L31.1348 11.0562ZM20 25.875C18.552 25.875 17.1364 25.4708 15.9324 24.7136C14.7284 23.9565 13.79 22.8803 13.2359 21.6211C12.6817 20.362 12.5368 18.9764 12.8193 17.6397C13.1018 16.303 13.799 15.0752 14.823 14.1115C15.8469 13.1478 17.1514 12.4915 18.5717 12.2256C19.9919 11.9597 21.464 12.0962 22.8018 12.6177C24.1396 13.1393 25.2831 14.0225 26.0875 15.1557C26.892 16.2889 27.3214 17.6212 27.3214 18.9841C27.3226 19.8893 27.134 20.7859 26.7665 21.6224C26.399 22.459 25.8597 23.219 25.1797 23.8591C24.4996 24.4992 23.692 25.0068 22.8032 25.3527C21.9144 25.6986 20.9618 25.8761 20 25.875ZM27.6232 13.4125C27.2852 13.4127 26.9547 13.3185 26.6735 13.1419C26.3924 12.9652 26.1732 12.7141 26.0437 12.4202C25.9143 12.1263 25.8803 11.8029 25.9461 11.4908C26.012 11.1788 26.1746 10.8921 26.4136 10.6671C26.6526 10.442 26.9571 10.2888 27.2886 10.2266C27.6201 10.1645 27.9638 10.1963 28.2761 10.318C28.5884 10.4397 28.8554 10.6459 29.0432 10.9104C29.231 11.1749 29.3313 11.4859 29.3313 11.8041C29.3322 12.0154 29.2888 12.2247 29.2036 12.4202C29.1184 12.6157 28.993 12.7934 28.8346 12.9431C28.6763 13.0928 28.488 13.2117 28.2808 13.2928C28.0735 13.374 27.8513 13.4158 27.6268 13.4159L27.6232 13.4125ZM35.7143 0.160156H4.28571C3.14907 0.160156 2.05898 0.585134 1.25526 1.3416C0.451529 2.09806 0 3.12405 0 4.19385L0 33.7743C0 34.8441 0.451529 35.8701 1.25526 36.6265C2.05898 37.383 3.14907 37.808 4.28571 37.808H35.7143C36.8509 37.808 37.941 37.383 38.7447 36.6265C39.5485 35.8701 40 34.8441 40 33.7743V4.19385C40 3.12405 39.5485 2.09806 38.7447 1.3416C37.941 0.585134 36.8509 0.160156 35.7143 0.160156ZM34.1857 24.5304C34.0705 26.6842 33.5482 28.5927 31.8777 30.1608C30.2071 31.7289 28.1813 32.2306 25.8955 32.3331C23.5375 32.4583 16.4679 32.4583 14.1098 32.3331C11.8214 32.2247 9.80089 31.7322 8.12768 30.1608C6.45446 28.5893 5.92857 26.68 5.81964 24.5304C5.68661 22.3102 5.68661 15.6554 5.81964 13.4377C5.93482 11.2839 6.45089 9.37547 8.12768 7.80737C9.80446 6.23927 11.8304 5.74346 14.1098 5.64094C16.4679 5.51573 23.5375 5.51573 25.8955 5.64094C28.1839 5.74935 30.2107 6.24179 31.8777 7.81325C33.5446 9.38472 34.0768 11.294 34.1857 13.4478C34.3188 15.6596 34.3188 22.3085 34.1857 24.5304Z" fill="white"/>
</svg>
